<svg width="108" height="21" viewBox="0 0 108 21" fill="none" xmlns="http://www.w3.org/2000/svg">
<path d="M10.92 -1.43051e-06H8.13L0.6 21H3.75L9.54 4.29L15.33 21H18.48L10.92 -1.43051e-06ZM29.9023 -1.43051e-06H27.0223V3.39H29.9023V-1.43051e-06ZM29.9023 6.33H27.0223V18.42L29.9023 15.57V6.33ZM31.7623 18.12L28.8523 21H39.6523V18.12H31.7623ZM50.0175 21H52.8675V6.93H50.0175V21ZM43.8375 -1.43051e-06V2.85H59.0475V-1.43051e-06H43.8375ZM67.909 18.12V21H81.859V18.12H67.909ZM80.749 9.09H67.909V11.88H80.749V9.09ZM81.679 -1.43051e-06H67.909V2.85H81.679V-1.43051e-06ZM103.436 21H107.066L99.3255 10.11L106.436 -1.43051e-06H102.776L96.5355 9.09H94.0155V-1.43051e-06H91.1355V21H94.0155V11.85H97.0155L103.436 21Z" fill="#F2F2F2"/>
</svg>
